{
  "accessors": [
    {
      "bufferView": 0,
      "componentType": 5125,
      "count": 36,
      "max": [23.0],
      "min": [0.0],
      "type": "SCALAR"
    },
    {
      "bufferView": 1,
      "componentType": 5126,
      "count": 24,
      "max": [14.330708503723145, 0.787401556968689, 1.1811023950576783],
      "min": [0.0, 0.0, 0.0],
      "type": "VEC3"
    },
    {
      "bufferView": 2,
      "componentType": 5126,
      "count": 24,
      "max": [1.0, 1.0, 1.0],
      "min": [-1.0, -1.0, -1.0],
      "type": "VEC3"
    },
    {
      "bufferView": 3,
      "componentType": 5125,
      "count": 786,
      "max": [443.0],
      "min": [0.0],
      "type": "SCALAR"
    },
    {
      "bufferView": 4,
      "componentType": 5126,
      "count": 444,
      "max": [1.1811023950576783, 1.1811023950576783, 3.9370079040527345],
      "min": [0.0, 0.0, 0.0],
      "type": "VEC3"
    },
    {
      "bufferView": 5,
      "componentType": 5126,
      "count": 444,
      "max": [1.0, 1.0, 1.0],
      "min": [-1.0, -1.0, -1.0],
      "type": "VEC3"
    },
    {
      "bufferView": 6,
      "componentType": 5125,
      "count": 2184,
      "max": [1139.0],
      "min": [0.0],
      "type": "SCALAR"
    },
    {
      "bufferView": 7,
      "componentType": 5126,
      "count": 1140,
      "max": [0.7086614370346069, 23.622047424316408, 27.952754974365236],
      "min": [0.0, 0.0, -1.7763568394002506e-15],
      "type": "VEC3"
    },
    {
      "bufferView": 8,
      "componentType": 5126,
      "count": 1140,
      "max": [1.0, 1.0, 1.0],
      "min": [-1.0, -1.0, -1.0],
      "type": "VEC3"
    },
    {
      "bufferView": 9,
      "componentType": 5125,
      "count": 504,
      "max": [266.0],
      "min": [0.0],
      "type": "SCALAR"
    },
    {
      "bufferView": 10,
      "componentType": 5126,
      "count": 267,
      "max": [17.716535568237306, 0.787401556968689, 3.9370079040527345],
      "min": [1.9685039520263672, 0.0, -0.787401556968689],
      "type": "VEC3"
    },
    {
      "bufferView": 11,
      "componentType": 5126,
      "count": 267,
      "max": [1.0, 1.0, 1.0],
      "min": [-1.0, -1.0, -1.0],
      "type": "VEC3"
    },
    {
      "bufferView": 12,
      "componentType": 5125,
      "count": 36,
      "max": [23.0],
      "min": [0.0],
      "type": "SCALAR"
    },
    {
      "bufferView": 13,
      "componentType": 5126,
      "count": 24,
      "max": [16.299213409423829, 22.362205505371095, 0.7086614370346069],
      "min": [1.9685039520263672, 0.0, 0.0],
      "type": "VEC3"
    },
    {
      "bufferView": 14,
      "componentType": 5126,
      "count": 24,
      "max": [1.0, 1.0, 1.0],
      "min": [-1.0, -1.0, -1.0],
      "type": "VEC3"
    },
    {
      "bufferView": 15,
      "componentType": 5125,
      "count": 66,
      "max": [39.0],
      "min": [0.0],
      "type": "SCALAR"
    },
    {
      "bufferView": 16,
      "componentType": 5126,
      "count": 40,
      "max": [15.748031616210938, 24.409448623657228, 1.574803113937378],
      "min": [0.0, 0.0, 0.0],
      "type": "VEC3"
    },
    {
      "bufferView": 17,
      "componentType": 5126,
      "count": 40,
      "max": [1.0, 1.0, 1.0],
      "min": [-1.0, -1.0, -1.0],
      "type": "VEC3"
    },
    {
      "bufferView": 18,
      "componentType": 5126,
      "count": 40,
      "max": [3.695319414138794, 4.695319175720215],
      "min": [-3.695319414138794, 0.16885387897491456],
      "type": "VEC2"
    },
    {
      "bufferView": 19,
      "componentType": 5125,
      "count": 36,
      "max": [23.0],
      "min": [0.0],
      "type": "SCALAR"
    },
    {
      "bufferView": 20,
      "componentType": 5126,
      "count": 24,
      "max": [14.330708503723145, 0.7086614370346069, 3.149606227874756],
      "min": [0.0, 0.0, 0.0],
      "type": "VEC3"
    },
    {
      "bufferView": 21,
      "componentType": 5126,
      "count": 24,
      "max": [1.0, 1.0, 1.0],
      "min": [-1.0, -1.0, -1.0],
      "type": "VEC3"
    },
    {
      "bufferView": 22,
      "componentType": 5125,
      "count": 84,
      "max": [47.0],
      "min": [0.0],
      "type": "SCALAR"
    },
    {
      "bufferView": 23,
      "componentType": 5126,
      "count": 48,
      "max": [24.173229217529298, 3.149606227874756, 0.7086614370346069],
      "min": [9.842519760131836, 4.973799150320701e-14, -7.638334409421077e-13],
      "type": "VEC3"
    },
    {
      "bufferView": 24,
      "componentType": 5126,
      "count": 48,
      "max": [1.0, 1.0, 1.0],
      "min": [-1.0, -1.0, -1.0],
      "type": "VEC3"
    },
    {
      "bufferView": 25,
      "componentType": 5126,
      "count": 1140,
      "max": [1.0, 1.0, 1.0],
      "min": [-1.0, -1.0, -1.0],
      "type": "VEC3"
    },
    {
      "bufferView": 26,
      "componentType": 5125,
      "count": 36,
      "max": [23.0],
      "min": [0.0],
      "type": "SCALAR"
    },
    {
      "bufferView": 27,
      "componentType": 5126,
      "count": 24,
      "max": [10.078740119934082, 0.35433071851730349, 26.811023712158204],
      "min": [-4.803149700164795, 0.0, -0.27559053897857668],
      "type": "VEC3"
    },
    {
      "bufferView": 28,
      "componentType": 5126,
      "count": 24,
      "max": [1.0, 1.0, 1.0],
      "min": [-1.0, -1.0, -1.0],
      "type": "VEC3"
    },
    {
      "bufferView": 29,
      "componentType": 5125,
      "count": 84,
      "max": [47.0],
      "min": [0.0],
      "type": "SCALAR"
    },
    {
      "bufferView": 30,
      "componentType": 5126,
      "count": 48,
      "max": [24.173229217529298, 3.149606227874756, 0.7086614370346069],
      "min": [9.842519760131836, -20.472440719604493, -7.673861546209082e-13],
      "type": "VEC3"
    },
    {
      "bufferView": 31,
      "componentType": 5126,
      "count": 48,
      "max": [1.0, 1.0, 1.0],
      "min": [-1.0, -1.0, -1.0],
      "type": "VEC3"
    },
    {
      "bufferView": 32,
      "componentType": 5125,
      "count": 636,
      "max": [335.0],
      "min": [0.0],
      "type": "SCALAR"
    },
    {
      "bufferView": 33,
      "componentType": 5126,
      "count": 336,
      "max": [14.330708503723145, 3.149606227874756, 0.7086614370346069],
      "min": [0.0, 0.0, -4.973799150320701e-14],
      "type": "VEC3"
    },
    {
      "bufferView": 34,
      "componentType": 5126,
      "count": 336,
      "max": [1.0, 1.0, 1.0],
      "min": [-1.0, -1.0, -1.0],
      "type": "VEC3"
    },
    {
      "bufferView": 35,
      "componentType": 5125,
      "count": 2298,
      "max": [1329.0],
      "min": [0.0],
      "type": "SCALAR"
    },
    {
      "bufferView": 36,
      "componentType": 5126,
      "count": 1330,
      "max": [15.629920959472657, 0.7086614370346069, 26.71259880065918],
      "min": [0.0, 0.0, 0.0],
      "type": "VEC3"
    },
    {
      "bufferView": 37,
      "componentType": 5126,
      "count": 1330,
      "max": [1.0, 1.0, 1.0],
      "min": [-1.0, -1.0, -1.0],
      "type": "VEC3"
    }
  ],
  "asset": { "generator": "SimLab GLTF", "version": "2.0" },
  "bufferViews": [
    { "buffer": 0, "byteLength": 144, "target": 34963 },
    {
      "buffer": 0,
      "byteLength": 288,
      "byteOffset": 144,
      "byteStride": 12,
      "target": 34962
    },
    {
      "buffer": 0,
      "byteLength": 288,
      "byteOffset": 432,
      "byteStride": 12,
      "target": 34962
    },
    { "buffer": 0, "byteLength": 3144, "byteOffset": 720, "target": 34963 },
    {
      "buffer": 0,
      "byteLength": 5328,
      "byteOffset": 3864,
      "byteStride": 12,
      "target": 34962
    },
    {
      "buffer": 0,
      "byteLength": 5328,
      "byteOffset": 9192,
      "byteStride": 12,
      "target": 34962
    },
    { "buffer": 0, "byteLength": 8736, "byteOffset": 14520, "target": 34963 },
    {
      "buffer": 0,
      "byteLength": 13680,
      "byteOffset": 23256,
      "byteStride": 12,
      "target": 34962
    },
    {
      "buffer": 0,
      "byteLength": 13680,
      "byteOffset": 36936,
      "byteStride": 12,
      "target": 34962
    },
    { "buffer": 0, "byteLength": 2016, "byteOffset": 50616, "target": 34963 },
    {
      "buffer": 0,
      "byteLength": 3204,
      "byteOffset": 52632,
      "byteStride": 12,
      "target": 34962
    },
    {
      "buffer": 0,
      "byteLength": 3204,
      "byteOffset": 55836,
      "byteStride": 12,
      "target": 34962
    },
    { "buffer": 0, "byteLength": 144, "byteOffset": 59040, "target": 34963 },
    {
      "buffer": 0,
      "byteLength": 288,
      "byteOffset": 59184,
      "byteStride": 12,
      "target": 34962
    },
    {
      "buffer": 0,
      "byteLength": 288,
      "byteOffset": 59472,
      "byteStride": 12,
      "target": 34962
    },
    { "buffer": 0, "byteLength": 264, "byteOffset": 59760, "target": 34963 },
    {
      "buffer": 0,
      "byteLength": 480,
      "byteOffset": 60024,
      "byteStride": 12,
      "target": 34962
    },
    {
      "buffer": 0,
      "byteLength": 480,
      "byteOffset": 60504,
      "byteStride": 12,
      "target": 34962
    },
    {
      "buffer": 0,
      "byteLength": 320,
      "byteOffset": 60984,
      "byteStride": 8,
      "target": 34962
    },
    { "buffer": 0, "byteLength": 144, "byteOffset": 61304, "target": 34963 },
    {
      "buffer": 0,
      "byteLength": 288,
      "byteOffset": 61448,
      "byteStride": 12,
      "target": 34962
    },
    {
      "buffer": 0,
      "byteLength": 288,
      "byteOffset": 61736,
      "byteStride": 12,
      "target": 34962
    },
    { "buffer": 0, "byteLength": 336, "byteOffset": 62024, "target": 34963 },
    {
      "buffer": 0,
      "byteLength": 576,
      "byteOffset": 62360,
      "byteStride": 12,
      "target": 34962
    },
    {
      "buffer": 0,
      "byteLength": 576,
      "byteOffset": 62936,
      "byteStride": 12,
      "target": 34962
    },
    {
      "buffer": 0,
      "byteLength": 13680,
      "byteOffset": 63512,
      "byteStride": 12,
      "target": 34962
    },
    { "buffer": 0, "byteLength": 144, "byteOffset": 77192, "target": 34963 },
    {
      "buffer": 0,
      "byteLength": 288,
      "byteOffset": 77336,
      "byteStride": 12,
      "target": 34962
    },
    {
      "buffer": 0,
      "byteLength": 288,
      "byteOffset": 77624,
      "byteStride": 12,
      "target": 34962
    },
    { "buffer": 0, "byteLength": 336, "byteOffset": 77912, "target": 34963 },
    {
      "buffer": 0,
      "byteLength": 576,
      "byteOffset": 78248,
      "byteStride": 12,
      "target": 34962
    },
    {
      "buffer": 0,
      "byteLength": 576,
      "byteOffset": 78824,
      "byteStride": 12,
      "target": 34962
    },
    { "buffer": 0, "byteLength": 2544, "byteOffset": 79400, "target": 34963 },
    {
      "buffer": 0,
      "byteLength": 4032,
      "byteOffset": 81944,
      "byteStride": 12,
      "target": 34962
    },
    {
      "buffer": 0,
      "byteLength": 4032,
      "byteOffset": 85976,
      "byteStride": 12,
      "target": 34962
    },
    { "buffer": 0, "byteLength": 9192, "byteOffset": 90008, "target": 34963 },
    {
      "buffer": 0,
      "byteLength": 15960,
      "byteOffset": 99200,
      "byteStride": 12,
      "target": 34962
    },
    {
      "buffer": 0,
      "byteLength": 15960,
      "byteOffset": 115160,
      "byteStride": 12,
      "target": 34962
    }
  ],
  "buffers": [{ "byteLength": 131120, "uri": "BBK 040x60x85.bin" }],
  "extensionsUsed": ["KHR_materials_pbrMetalnessRougness"],
  "images": [
    { "mimeType": "image/jpeg", "uri": "Textures/Carrera Marble.jpg" }
  ],
  "materials": [
    {
      "extensions": {
        "KHR_materials_pbrMetalnessRougness": {
          "diffuseFactor": [
            0.8999999761581421, 0.8999999761581421, 0.8999999761581421, 1.0
          ],
          "metalnessFactor": [0.25, 0.25, 0.25],
          "rougnessFactor": 0.5
        }
      },
      "name": "DefaultMaterial~1",
      "alphaMode": "MASK",
      "doubleSided": true,
      "pbrMetallicRoughness": {
        "baseColorFactor": [
          0.8999999761581421, 0.8999999761581421, 0.8999999761581421, 1.0
        ],
        "metallicFactor": 0.5,
        "roughnessFactor": 0.5
      }
    },
    {
      "extensions": {
        "KHR_materials_pbrMetalnessRougness": {
          "diffuseFactor": [1.0, 1.0, 1.0, 1.0],
          "metalnessFactor": [0.5, 0.5, 0.5],
          "rougnessFactor": 0.5
        }
      },
      "name": "MDF",
      "alphaMode": "MASK",
      "doubleSided": true,
      "pbrMetallicRoughness": { "metallicFactor": 0.5, "roughnessFactor": 0.5 }
    },
    {
      "extensions": {
        "KHR_materials_pbrMetalnessRougness": {
          "diffuseFactor": [1.0, 1.0, 1.0, 1.0],
          "metalnessFactor": [0.5, 0.5, 0.5],
          "rougnessFactor": 0.5
        }
      },
      "name": "[Color M00]1",
      "alphaMode": "MASK",
      "doubleSided": true,
      "pbrMetallicRoughness": { "metallicFactor": 0.5, "roughnessFactor": 0.5 }
    },
    {
      "extensions": {
        "KHR_materials_pbrMetalnessRougness": {
          "diffuseFactor": [1.0, 1.0, 1.0, 1.0],
          "diffuseTexture": { "index": 0 },
          "metalnessFactor": [0.5, 0.5, 0.5],
          "rougnessFactor": 0.5
        }
      },
      "name": "[Carrera Marble]",
      "alphaMode": "MASK",
      "doubleSided": true,
      "pbrMetallicRoughness": {
        "baseColorTexture": { "index": 0 },
        "metallicFactor": 0.5,
        "roughnessFactor": 0.5
      }
    }
  ],
  "meshes": [
    {
      "primitives": [
        {
          "attributes": { "NORMAL": 2, "POSITION": 1 },
          "indices": 0,
          "material": 0,
          "mode": 4
        }
      ]
    },
    {
      "primitives": [
        {
          "attributes": { "NORMAL": 5, "POSITION": 4 },
          "indices": 3,
          "material": 0,
          "mode": 4
        }
      ]
    },
    {
      "primitives": [
        {
          "attributes": { "NORMAL": 8, "POSITION": 7 },
          "indices": 6,
          "material": 1,
          "mode": 4
        }
      ]
    },
    {
      "primitives": [
        {
          "attributes": { "NORMAL": 11, "POSITION": 10 },
          "indices": 9,
          "material": 2,
          "mode": 4
        }
      ]
    },
    {
      "primitives": [
        {
          "attributes": { "NORMAL": 5, "POSITION": 4 },
          "indices": 3,
          "material": 0,
          "mode": 4
        }
      ]
    },
    {
      "primitives": [
        {
          "attributes": { "NORMAL": 5, "POSITION": 4 },
          "indices": 3,
          "material": 0,
          "mode": 4
        }
      ]
    },
    {
      "primitives": [
        {
          "attributes": { "NORMAL": 14, "POSITION": 13 },
          "indices": 12,
          "material": 0,
          "mode": 4
        }
      ]
    },
    {
      "primitives": [
        {
          "attributes": { "NORMAL": 17, "POSITION": 16, "TEXCOORD_0": 18 },
          "indices": 15,
          "material": 3,
          "mode": 4
        }
      ]
    },
    {
      "primitives": [
        {
          "attributes": { "NORMAL": 21, "POSITION": 20 },
          "indices": 19,
          "material": 0,
          "mode": 4
        }
      ]
    },
    {
      "primitives": [
        {
          "attributes": { "NORMAL": 24, "POSITION": 23 },
          "indices": 22,
          "material": 1,
          "mode": 4
        }
      ]
    },
    {
      "primitives": [
        {
          "attributes": { "NORMAL": 25, "POSITION": 7 },
          "indices": 6,
          "material": 1,
          "mode": 4
        }
      ]
    },
    {
      "primitives": [
        {
          "attributes": { "NORMAL": 28, "POSITION": 27 },
          "indices": 26,
          "material": 0,
          "mode": 4
        }
      ]
    },
    {
      "primitives": [
        {
          "attributes": { "NORMAL": 31, "POSITION": 30 },
          "indices": 29,
          "material": 1,
          "mode": 4
        }
      ]
    },
    {
      "primitives": [
        {
          "attributes": { "NORMAL": 34, "POSITION": 33 },
          "indices": 32,
          "material": 1,
          "mode": 4
        }
      ]
    },
    {
      "primitives": [
        {
          "attributes": { "NORMAL": 5, "POSITION": 4 },
          "indices": 3,
          "material": 0,
          "mode": 4
        }
      ]
    },
    {
      "primitives": [
        {
          "attributes": { "NORMAL": 37, "POSITION": 36 },
          "indices": 35,
          "material": 0,
          "mode": 4
        }
      ]
    }
  ],
  "nodes": [
    {
      "children": [1, 2],
      "matrix": [
        1.0, 0.0, 0.0, 0.0, 0.0, 4.4896593387466768e-11, -1.0, 0.0, 0.0, 1.0,
        4.4896593387466768e-11, 0.0, 0.0, 0.0, 0.0, 1.0
      ]
    },
    {
      "name": "Active View",
      "matrix": [
        0.7071067690849304, -0.7071067690849304, -3.885780586188048e-16, 0.0,
        0.2357022613286972, 0.2357022613286972, 0.9428090453147888, 0.0,
        -0.6666666865348816, -0.6666666865348816, 0.3333333432674408, 0.0,
        -1.9927923679351807, -1.925350308418274, 1.4031658172607422, 1.0
      ]
    },
    {
      "name": "BBK 040X60X85 (1)",
      "children": [3],
      "rotation": [0.0, 0.0, 0.0, -1.0]
    },
    {
      "name": "Assembly-20",
      "children": [4],
      "rotation": [0.0, 0.0, 0.0, -1.0],
      "scale": [
        0.009999999776482582, 0.009999999776482582, 0.009999999776482582
      ]
    },
    {
      "name": "Assembly-1",
      "children": [
        5, 7, 9, 11, 13, 15, 17, 19, 21, 23, 25, 27, 29, 31, 33, 35, 37, 39
      ],
      "rotation": [0.0, 0.0, 0.0, -1.0],
      "scale": [2.5399999618530275, 2.5399999618530275, 2.5399999618530275]
    },
    {
      "name": "BBK 40X60X85 (1)",
      "children": [6],
      "rotation": [0.0, 0.0, 0.0, -1.0],
      "translation": [
        0.05905511975288391, 0.07874015718698502, 4.783464431762695
      ]
    },
    { "name": "3DGeom-1", "rotation": [0.0, 0.0, 0.0, -1.0] },
    {
      "name": "BBK 40X60X85 (1)",
      "children": [8],
      "rotation": [0.0, 0.0, 0.0, -1.0],
      "translation": [
        0.05905511975288391, 0.07874015718698502, 4.783464431762695
      ]
    },
    { "name": "3DGeom-2", "rotation": [0.0, 0.0, 0.0, -1.0] },
    {
      "name": "BBK 40X60X85 (1)",
      "children": [10],
      "rotation": [0.0, 0.0, 0.0, -1.0],
      "translation": [0.7086614370346069, 0.787401556968689, 30.78740119934082]
    },
    { "name": "3DGeom-3", "mesh": 0, "rotation": [0.0, 0.0, 0.0, -1.0] },
    {
      "name": "BBK 40X60X85 (1)",
      "children": [12],
      "rotation": [0.0, 0.0, 0.0, -1.0],
      "scale": [1.0, 1.0, 1.2000000476837159],
      "translation": [14.364192962646485, 23.136512756347658, 0.0]
    },
    { "name": "3DGeom-4", "mesh": 1, "rotation": [0.0, 0.0, 0.0, -1.0] },
    {
      "name": "BBK 40X60X85 (1)",
      "children": [14],
      "rotation": [0.0, 0.0, 0.0, -1.0],
      "translation": [15.0393705368042, 0.787401556968689, 4.724409580230713]
    },
    { "name": "3DGeom-5", "mesh": 2, "rotation": [0.0, 0.0, 0.0, -1.0] },
    {
      "name": "BBK 40X60X85 (1)",
      "children": [16],
      "rotation": [0.0, 0.0, 0.0, -1.0],
      "translation": [-1.9685039520263672, 0.0, 0.787401556968689]
    },
    { "name": "3DGeom-6", "mesh": 3, "rotation": [0.0, 0.0, 0.0, -1.0] },
    {
      "name": "BBK 40X60X85 (1)",
      "children": [18],
      "rotation": [0.0, 0.0, 0.0, -1.0],
      "scale": [1.0, 1.0, 1.2000000476837159],
      "translation": [0.3956674337387085, 1.117444396018982, 0.0]
    },
    { "name": "3DGeom-4", "mesh": 4, "rotation": [0.0, 0.0, 0.0, -1.0] },
    {
      "name": "BBK 40X60X85 (1)",
      "children": [20],
      "rotation": [0.0, 0.0, 0.0, -1.0],
      "scale": [1.0, 1.0, 1.2000000476837159],
      "translation": [14.364192962646485, 1.117444396018982, 0.0]
    },
    { "name": "3DGeom-4", "mesh": 5, "rotation": [0.0, 0.0, 0.0, -1.0] },
    {
      "name": "BBK 40X60X85 (1)",
      "children": [22],
      "rotation": [0.0, 0.0, 0.0, -1.0],
      "translation": [-1.2598425149917603, 0.787401556968689, 18.66141700744629]
    },
    { "name": "3DGeom-9", "mesh": 6, "rotation": [0.0, 0.0, 0.0, -1.0] },
    {
      "name": "BBK 40X60X85 (1)",
      "children": [24],
      "rotation": [0.0, 0.0, 0.0, -1.0],
      "translation": [0.0, 1.7053025658242404e-13, 31.88976287841797]
    },
    { "name": "3DGeom-10", "mesh": 7, "rotation": [0.0, 0.0, 0.0, -1.0] },
    {
      "name": "BBK 40X60X85 (1)",
      "children": [26],
      "rotation": [0.0, 0.0, 0.0, -1.0],
      "translation": [
        0.7086614370346069, 23.700786590576173, 21.181102752685548
      ]
    },
    { "name": "3DGeom-11", "mesh": 8, "rotation": [0.0, 0.0, 0.0, -1.0] },
    {
      "name": "BBK 40X60X85 (1)",
      "children": [28],
      "rotation": [0.0, 0.0, 0.0, -1.0],
      "translation": [
        -9.133858680725098, 21.259841918945314, 31.968503952026368
      ]
    },
    { "name": "3DGeom-12", "mesh": 9, "rotation": [0.0, 0.0, 0.0, -1.0] },
    {
      "name": "BBK 40X60X85 (1)",
      "children": [30],
      "rotation": [1.0, 0.0, 0.0, -0.0],
      "scale": [-1.0, -1.0, -1.0],
      "translation": [0.7086614370346069, 0.787401556968689, 4.724409580230713]
    },
    { "name": "3DGeom-5", "mesh": 10, "rotation": [0.0, 0.0, 0.0, -1.0] },
    {
      "name": "BBK 40X60X85 (1)",
      "children": [32],
      "rotation": [0.0, 0.0, 0.0, -1.0],
      "translation": [5.236220359802246, 23.188976287841798, 5.433070659637451]
    },
    { "name": "3DGeom-14", "mesh": 11, "rotation": [0.0, 0.0, 0.0, -1.0] },
    {
      "name": "BBK 40X60X85 (1)",
      "children": [34],
      "rotation": [0.0, 0.0, 1.0, -0.0],
      "scale": [-1.0, -1.0, -1.0],
      "translation": [-9.133858680725098, 21.259841918945314, 5.433070659637451]
    },
    { "name": "3DGeom-15", "mesh": 12, "rotation": [0.0, 0.0, 0.0, -1.0] },
    {
      "name": "BBK 40X60X85 (1)",
      "children": [36],
      "rotation": [0.0, 0.0, 0.0, -1.0],
      "translation": [0.7086614370346069, 0.787401556968689, 31.968503952026368]
    },
    { "name": "3DGeom-16", "mesh": 13, "rotation": [0.0, 0.0, 0.0, -1.0] },
    {
      "name": "BBK 40X60X85 (1)",
      "children": [38],
      "rotation": [0.0, 0.0, 0.0, -1.0],
      "scale": [1.0, 1.0, 1.2000000476837159],
      "translation": [0.3956674337387085, 23.136512756347658, 0.0]
    },
    { "name": "3DGeom-4", "mesh": 14, "rotation": [0.0, 0.0, 0.0, -1.0] },
    {
      "name": "BBK 40X60X85 (1)",
      "children": [40],
      "rotation": [0.0, 0.0, 0.0, -1.0],
      "translation": [
        0.05905511975288391, 0.07874015718698502, 4.783464431762695
      ]
    },
    { "name": "3DGeom-18", "mesh": 15, "rotation": [0.0, 0.0, 0.0, -1.0] }
  ],
  "scene": 0,
  "scenes": [{ "nodes": [0] }],
  "textures": [{ "source": 0 }]
}
