{
	"asset":{
		"generator":"Khronos glTF Blender I/O v4.0.44",
		"version":"2.0"
	},
	"extensionsUsed":[
		"KHR_materials_specular",
		"KHR_materials_ior"
	],
	"scene":0,
	"scenes":[
		{
			"name":"Scene",
			"nodes":[
				0
			]
		}
	],
	"nodes":[
		{
			"mesh":0,
			"name":"(Base) BAK 040X38X40",
			"rotation":[
				0.7071068286895752,
				0,
				0,
				0.7071068286895752
			]
		}
	],
	"materials":[
		{
			"doubleSided":true,
			"extensions":{
				"KHR_materials_specular":{
					"specularFactor":0
				},
				"KHR_materials_ior":{
					"ior":1.4500000476837158
				}
			},
			"name":"FrontColor",
			"pbrMetallicRoughness":{
				"baseColorFactor":[
					0.800000011920929,
					0.800000011920929,
					0.800000011920929,
					1
				],
				"metallicFactor":0
			}
		}
	],
	"meshes":[
		{
			"name":"(Base) BAK 040X38X40",
			"primitives":[
				{
					"attributes":{
						"POSITION":0,
						"NORMAL":1,
						"TEXCOORD_0":2
					},
					"indices":3,
					"material":0
				}
			]
		}
	],
	"accessors":[
		{
			"bufferView":0,
			"componentType":5126,
			"count":2351,
			"max":[
				40,
				0,
				0
			],
			"min":[
				0,
				-38,
				-40
			],
			"type":"VEC3"
		},
		{
			"bufferView":1,
			"componentType":5126,
			"count":2351,
			"type":"VEC3"
		},
		{
			"bufferView":2,
			"componentType":5126,
			"count":2351,
			"type":"VEC2"
		},
		{
			"bufferView":3,
			"componentType":5123,
			"count":4608,
			"type":"SCALAR"
		}
	],
	"bufferViews":[
		{
			"buffer":0,
			"byteLength":28212,
			"byteOffset":0,
			"target":34962
		},
		{
			"buffer":0,
			"byteLength":28212,
			"byteOffset":28212,
			"target":34962
		},
		{
			"buffer":0,
			"byteLength":18808,
			"byteOffset":56424,
			"target":34962
		},
		{
			"buffer":0,
			"byteLength":9216,
			"byteOffset":75232,
			"target":34963
		}
	],
	"buffers":[
		{
			"byteLength":84448,
			"uri":"kotakkkk.bin"
		}
	]
}
